name rise38.3101peak57.3503fall81.6963.mot
datacolumns 19
datarows 33
range 21.46158900000000 21.51492500000000
endheader
time	ground_force1_vx	ground_force1_vy	ground_force1_vz	ground_force1_px	ground_force1_py	ground_force1_pz	ground_force2_vx	ground_force2_vy	ground_force2_vz	ground_force2_px	ground_force2_py	ground_force2_pz	ground_torque1_x	ground_torque1_y	ground_torque1_z	ground_torque2_x	ground_torque2_y	ground_torque2_z	
21.46158900000000	80.58635599999999	804.32575899999995	49.68758000000000	0.37727900000000	0.00000000000000	0.08454800000000	0.00000000000000	0.00000000000000	0.00000000000000	0.00000000000000	0.00000000000000	0.00000000000000	0.00000000000000	23.07958200000000	0.00000000000000	0.00000000000000	0.00000000000000	0.00000000000000	
21.46325800000000	79.79507500000000	805.43933500000003	49.83707900000000	0.37612900000000	0.00000000000000	0.08459900000000	0.00000000000000	0.00000000000000	0.00000000000000	0.00000000000000	0.00000000000000	0.00000000000000	0.00000000000000	23.19658100000000	0.00000000000000	0.00000000000000	0.00000000000000	0.00000000000000	
21.46492600000000	78.99462300000000	806.37963900000000	49.97390900000000	0.37498200000000	0.00000000000000	0.08465000000000	0.00000000000000	0.00000000000000	0.00000000000000	0.00000000000000	0.00000000000000	0.00000000000000	0.00000000000000	23.30619400000000	0.00000000000000	0.00000000000000	0.00000000000000	0.00000000000000	
21.46659200000000	78.18565300000000	807.14743799999997	50.09816500000000	0.37383700000000	0.00000000000000	0.08470000000000	0.00000000000000	0.00000000000000	0.00000000000000	0.00000000000000	0.00000000000000	0.00000000000000	0.00000000000000	23.40845200000000	0.00000000000000	0.00000000000000	0.00000000000000	0.00000000000000	
21.46826100000000	77.36876599999999	807.74372000000005	50.20991600000000	0.37269300000000	0.00000000000000	0.08474900000000	0.00000000000000	0.00000000000000	0.00000000000000	0.00000000000000	0.00000000000000	0.00000000000000	0.00000000000000	23.50336600000000	0.00000000000000	0.00000000000000	0.00000000000000	0.00000000000000	
21.46992700000000	76.54451899999999	808.16969900000004	50.30920800000000	0.37155100000000	0.00000000000000	0.08479800000000	0.00000000000000	0.00000000000000	0.00000000000000	0.00000000000000	0.00000000000000	0.00000000000000	0.00000000000000	23.59093200000000	0.00000000000000	0.00000000000000	0.00000000000000	0.00000000000000	
21.47159100000000	75.71342900000000	808.42682100000002	50.39606500000000	0.37040900000000	0.00000000000000	0.08484600000000	0.00000000000000	0.00000000000000	0.00000000000000	0.00000000000000	0.00000000000000	0.00000000000000	0.00000000000000	23.67112900000000	0.00000000000000	0.00000000000000	0.00000000000000	0.00000000000000	
21.47325200000000	74.87597100000001	808.51677099999995	50.47049500000000	0.36926800000000	0.00000000000000	0.08489300000000	0.00000000000000	0.00000000000000	0.00000000000000	0.00000000000000	0.00000000000000	0.00000000000000	0.00000000000000	23.74392300000000	0.00000000000000	0.00000000000000	0.00000000000000	0.00000000000000	
21.47492600000000	74.03258599999999	808.44147199999998	50.53248800000000	0.36812500000000	0.00000000000000	0.08494000000000	0.00000000000000	0.00000000000000	0.00000000000000	0.00000000000000	0.00000000000000	0.00000000000000	0.00000000000000	23.80926700000000	0.00000000000000	0.00000000000000	0.00000000000000	0.00000000000000	
21.47659100000000	73.18368100000001	808.20309499999996	50.58202000000000	0.36698000000000	0.00000000000000	0.08498600000000	0.00000000000000	0.00000000000000	0.00000000000000	0.00000000000000	0.00000000000000	0.00000000000000	0.00000000000000	23.86710600000000	0.00000000000000	0.00000000000000	0.00000000000000	0.00000000000000	
21.47825900000000	72.32963500000000	807.80405199999996	50.61905900000000	0.36583200000000	0.00000000000000	0.08503100000000	0.00000000000000	0.00000000000000	0.00000000000000	0.00000000000000	0.00000000000000	0.00000000000000	0.00000000000000	23.91737600000000	0.00000000000000	0.00000000000000	0.00000000000000	0.00000000000000	
21.47992600000000	71.47080000000000	807.24700600000006	50.64356200000000	0.36468100000000	0.00000000000000	0.08507600000000	0.00000000000000	0.00000000000000	0.00000000000000	0.00000000000000	0.00000000000000	0.00000000000000	0.00000000000000	23.96000700000000	0.00000000000000	0.00000000000000	0.00000000000000	0.00000000000000	
21.48158800000000	70.60750500000000	806.53486299999997	50.65548400000000	0.36352500000000	0.00000000000000	0.08512000000000	0.00000000000000	0.00000000000000	0.00000000000000	0.00000000000000	0.00000000000000	0.00000000000000	0.00000000000000	23.99492700000000	0.00000000000000	0.00000000000000	0.00000000000000	0.00000000000000	
21.48325900000000	69.74006199999999	805.67077700000004	50.65477600000000	0.36236300000000	0.00000000000000	0.08516400000000	0.00000000000000	0.00000000000000	0.00000000000000	0.00000000000000	0.00000000000000	0.00000000000000	0.00000000000000	24.02206000000000	0.00000000000000	0.00000000000000	0.00000000000000	0.00000000000000	
21.48492300000000	68.86876500000000	804.65814399999999	50.64139200000000	0.36119500000000	0.00000000000000	0.08520600000000	0.00000000000000	0.00000000000000	0.00000000000000	0.00000000000000	0.00000000000000	0.00000000000000	0.00000000000000	24.04133400000000	0.00000000000000	0.00000000000000	0.00000000000000	0.00000000000000	
21.48659400000000	67.99389600000001	803.50059899999997	50.61529000000000	0.36001900000000	0.00000000000000	0.08524900000000	0.00000000000000	0.00000000000000	0.00000000000000	0.00000000000000	0.00000000000000	0.00000000000000	0.00000000000000	24.05267800000000	0.00000000000000	0.00000000000000	0.00000000000000	0.00000000000000	
21.48825900000000	67.11573000000000	802.20201399999996	50.57643600000000	0.35883500000000	0.00000000000000	0.08529100000000	0.00000000000000	0.00000000000000	0.00000000000000	0.00000000000000	0.00000000000000	0.00000000000000	0.00000000000000	24.05602600000000	0.00000000000000	0.00000000000000	0.00000000000000	0.00000000000000	
21.48992000000000	66.23453300000000	800.76648999999998	50.52480700000000	0.35764100000000	0.00000000000000	0.08533200000000	0.00000000000000	0.00000000000000	0.00000000000000	0.00000000000000	0.00000000000000	0.00000000000000	0.00000000000000	24.05132100000000	0.00000000000000	0.00000000000000	0.00000000000000	0.00000000000000	
21.49158800000000	65.35056899999999	799.19835100000000	50.46039300000000	0.35643700000000	0.00000000000000	0.08537300000000	0.00000000000000	0.00000000000000	0.00000000000000	0.00000000000000	0.00000000000000	0.00000000000000	0.00000000000000	24.03851300000000	0.00000000000000	0.00000000000000	0.00000000000000	0.00000000000000	
21.49325600000000	64.46410299999999	797.50214100000005	50.38320200000000	0.35522100000000	0.00000000000000	0.08541300000000	0.00000000000000	0.00000000000000	0.00000000000000	0.00000000000000	0.00000000000000	0.00000000000000	0.00000000000000	24.01756600000000	0.00000000000000	0.00000000000000	0.00000000000000	0.00000000000000	
21.49492600000000	63.57540100000000	795.68260699999996	50.29326000000000	0.35399200000000	0.00000000000000	0.08545400000000	0.00000000000000	0.00000000000000	0.00000000000000	0.00000000000000	0.00000000000000	0.00000000000000	0.00000000000000	23.98845500000000	0.00000000000000	0.00000000000000	0.00000000000000	0.00000000000000	
21.49658500000000	62.68473500000000	793.74469999999997	50.19061500000000	0.35275000000000	0.00000000000000	0.08549300000000	0.00000000000000	0.00000000000000	0.00000000000000	0.00000000000000	0.00000000000000	0.00000000000000	0.00000000000000	23.95117100000000	0.00000000000000	0.00000000000000	0.00000000000000	0.00000000000000	
21.49825300000000	61.79238300000000	791.69355599999994	50.07534300000000	0.35149300000000	0.00000000000000	0.08553300000000	0.00000000000000	0.00000000000000	0.00000000000000	0.00000000000000	0.00000000000000	0.00000000000000	0.00000000000000	23.90572300000000	0.00000000000000	0.00000000000000	0.00000000000000	0.00000000000000	
21.49991900000000	60.89863300000000	789.53449200000000	49.94754200000000	0.35022100000000	0.00000000000000	0.08557200000000	0.00000000000000	0.00000000000000	0.00000000000000	0.00000000000000	0.00000000000000	0.00000000000000	0.00000000000000	23.85213700000000	0.00000000000000	0.00000000000000	0.00000000000000	0.00000000000000	
21.50158600000000	60.00378400000000	787.27299000000005	49.80734400000000	0.34893300000000	0.00000000000000	0.08561100000000	0.00000000000000	0.00000000000000	0.00000000000000	0.00000000000000	0.00000000000000	0.00000000000000	0.00000000000000	23.79045800000000	0.00000000000000	0.00000000000000	0.00000000000000	0.00000000000000	
21.50325800000000	59.10814900000000	784.91468599999996	49.65490800000000	0.34762800000000	0.00000000000000	0.08565000000000	0.00000000000000	0.00000000000000	0.00000000000000	0.00000000000000	0.00000000000000	0.00000000000000	0.00000000000000	23.72075400000000	0.00000000000000	0.00000000000000	0.00000000000000	0.00000000000000	
21.50492600000000	58.21205400000000	782.46535800000004	49.49042700000000	0.34630500000000	0.00000000000000	0.08568800000000	0.00000000000000	0.00000000000000	0.00000000000000	0.00000000000000	0.00000000000000	0.00000000000000	0.00000000000000	23.64311400000000	0.00000000000000	0.00000000000000	0.00000000000000	0.00000000000000	
21.50658800000000	57.31584000000000	779.93091000000004	49.31412900000000	0.34496300000000	0.00000000000000	0.08572700000000	0.00000000000000	0.00000000000000	0.00000000000000	0.00000000000000	0.00000000000000	0.00000000000000	0.00000000000000	23.55765000000000	0.00000000000000	0.00000000000000	0.00000000000000	0.00000000000000	
21.50826000000000	56.41986600000000	777.31736100000001	49.12627700000000	0.34360200000000	0.00000000000000	0.08576500000000	0.00000000000000	0.00000000000000	0.00000000000000	0.00000000000000	0.00000000000000	0.00000000000000	0.00000000000000	23.46449900000000	0.00000000000000	0.00000000000000	0.00000000000000	0.00000000000000	
21.50991800000000	55.52450600000000	774.63082799999995	48.92716700000000	0.34222100000000	0.00000000000000	0.08580400000000	0.00000000000000	0.00000000000000	0.00000000000000	0.00000000000000	0.00000000000000	0.00000000000000	0.00000000000000	23.36382000000000	0.00000000000000	0.00000000000000	0.00000000000000	0.00000000000000	
21.51158600000000	54.63015300000000	771.87751000000003	48.71713500000000	0.34082000000000	0.00000000000000	0.08584300000000	0.00000000000000	0.00000000000000	0.00000000000000	0.00000000000000	0.00000000000000	0.00000000000000	0.00000000000000	23.25580000000000	0.00000000000000	0.00000000000000	0.00000000000000	0.00000000000000	
21.51325200000000	53.73721600000000	769.06367599999999	48.49655200000000	0.33939800000000	0.00000000000000	0.08588200000000	0.00000000000000	0.00000000000000	0.00000000000000	0.00000000000000	0.00000000000000	0.00000000000000	0.00000000000000	23.14064800000000	0.00000000000000	0.00000000000000	0.00000000000000	0.00000000000000	
21.51492500000000	52.84612300000000	766.19564600000001	48.26582600000000	0.33795500000000	0.00000000000000	0.08592100000000	0.00000000000000	0.00000000000000	0.00000000000000	0.00000000000000	0.00000000000000	0.00000000000000	0.00000000000000	23.01860000000000	0.00000000000000	0.00000000000000	0.00000000000000	0.00000000000000	
